HIERARCHY
ROOT Hips
{
	OFFSET 0.000000 0.000000 0.000000
	CHANNELS 6 Xposition Yposition Zposition Xrotation Yrotation Zrotation
	JOINT Chest
	{
		OFFSET 0.000000 9.585900 0.002600
		CHANNELS 3 Xrotation Yrotation Zrotation
		JOINT Chest2
		{
			OFFSET 0.000000 9.601200 -0.005300
			CHANNELS 3 Xrotation Yrotation Zrotation
			JOINT Chest3
			{
				OFFSET 0.000000 9.561800 0.000000
				CHANNELS 3 Xrotation Yrotation Zrotation
				JOINT Chest4
				{
					OFFSET 0.000000 9.552100 0.000000
					CHANNELS 3 Xrotation Yrotation Zrotation
					JOINT Neck
					{
						OFFSET 0.000000 14.453000 0.000000
						CHANNELS 3 Xrotation Yrotation Zrotation
						JOINT Head
						{
							OFFSET 0.000000 8.936500 -0.011300
							CHANNELS 3 Xrotation Yrotation Zrotation
							End Site
							{
								OFFSET 0.000000 0.000000 0.000000
							}
						}
					}
					JOINT RightCollar
					{
						OFFSET -2.921100 9.558500 0.000000
						CHANNELS 3 Xrotation Yrotation Zrotation
						JOINT RightShoulder
						{
							OFFSET -13.519700 0.000000 0.000000
							CHANNELS 3 Xrotation Yrotation Zrotation
							JOINT RightElbow
							{
								OFFSET 0.000000 -29.696600 0.000000
								CHANNELS 3 Xrotation Yrotation Zrotation
								JOINT RightWrist
								{
									OFFSET 0.000000 -24.004700 0.000000
									CHANNELS 3 Xrotation Yrotation Zrotation
									End Site
									{
										OFFSET 0.000000 0.000000 0.000000
									}
								}
							}
						}
					}
					JOINT LeftCollar
					{
						OFFSET 2.921100 9.558500 0.000000
						CHANNELS 3 Xrotation Yrotation Zrotation
						JOINT LeftShoulder
						{
							OFFSET 13.519700 0.000000 0.000000
							CHANNELS 3 Xrotation Yrotation Zrotation
							JOINT LeftElbow
							{
								OFFSET 0.000000 -29.696600 0.000000
								CHANNELS 3 Xrotation Yrotation Zrotation
								JOINT LeftWrist
								{
									OFFSET 0.000000 -24.004700 0.000000
									CHANNELS 3 Xrotation Yrotation Zrotation
									End Site
									{
										OFFSET 0.000000 0.000000 0.000000
									}
								}
							}
						}
					}
				}
			}
		}
	}
	JOINT RightHip
	{
		OFFSET -7.771700 -0.012900 -0.001300
		CHANNELS 3 Xrotation Yrotation Zrotation
		JOINT RightKnee
		{
			OFFSET 0.000000 -40.869801 0.001200
			CHANNELS 3 Xrotation Yrotation Zrotation
			JOINT RightAnkle
			{
				OFFSET 0.000000 -39.717899 0.002100
				CHANNELS 3 Xrotation Yrotation Zrotation
				JOINT RightToe
				{
					OFFSET 0.000000 -4.965400 11.033500
					CHANNELS 3 Xrotation Yrotation Zrotation
					End Site
					{
						OFFSET 0.000000 0.000000 0.000000
					}
				}
			}
		}
	}
	JOINT LeftHip
	{
		OFFSET 7.771700 -0.012900 -0.001300
		CHANNELS 3 Xrotation Yrotation Zrotation
		JOINT LeftKnee
		{
			OFFSET 0.000000 -40.869801 0.001200
			CHANNELS 3 Xrotation Yrotation Zrotation
			JOINT LeftAnkle
			{
				OFFSET 0.000000 -39.717899 0.002100
				CHANNELS 3 Xrotation Yrotation Zrotation
				JOINT LeftToe
				{
					OFFSET 0.000000 -4.965400 11.033500
					CHANNELS 3 Xrotation Yrotation Zrotation
					End Site
					{
						OFFSET 0.000000 0.000000 0.000000
					}
				}
			}
		}
	}
}
MOTION
Frames: 10
Frame Time: 0.032
0.0 0.0 0.0 -172.036332 25.935114 178.137754 10.113827 3.627112 0.505392 0.258670 0.581265 -0.017632 3.346251 -0.157497 0.489865 8.980296 0.695787 0.262953 17.427250 0.119934 0.350050 -7.021518 3.321129 -0.665583 3.645279 6.621027 0.903393 -33.569895 17.446234 -16.915250 -74.968416 -19.046025 48.707851 -4.740515 2.419335 -28.295404 0.825926 -5.227929 -5.057355 -18.059447 8.742885 6.562104 -73.606695 15.964619 -53.631585 21.802408 -11.498537 0.983138 -62.023691 -0.965674 4.845637 76.817362 -9.774392 0.735385 -8.228257 -1.987825 2.292530 1.188388 0.012679 0.061350 -62.813555 10.331336 14.243728 68.644282 14.767516 0.605997 -20.548083 -21.767007 -3.419460 -0.320839 -0.258441 -0.374012
0.0 0.0 0.0 -171.940109 25.941771 178.119613 10.195148 3.614591 0.469339 0.328327 0.557021 0.005351 3.397343 -0.170950 0.533237 9.021910 0.693797 0.279295 17.489779 0.122491 0.312050 -6.960187 3.295853 -0.668588 3.768180 6.583724 0.928759 -33.411554 17.125683 -16.976473 -75.092425 -19.320227 48.446901 -4.792074 2.366073 -28.197922 0.885273 -5.239923 -5.025440 -17.866134 8.931779 6.678587 -73.793234 16.232780 -53.616240 21.706584 -11.456258 0.862362 -61.957910 -1.006164 4.827396 76.840837 -9.792611 0.696066 -8.157621 -2.024292 2.275937 1.244880 -0.019131 0.053536 -62.727405 10.245958 14.268666 68.716798 14.765462 0.570848 -20.503511 -21.785981 -3.400494 -0.272589 -0.293178 -0.377792
0.0 0.0 0.0 -172.053749 26.010539 178.110952 10.158157 3.631002 0.499231 0.312992 0.559980 -0.039639 3.383992 -0.175494 0.485038 8.979527 0.707941 0.236143 17.494652 0.116378 0.333110 -6.955757 3.323273 -0.640028 3.805781 6.557143 0.929155 -33.354211 16.942566 -17.011739 -75.274709 -19.512648 48.139563 -4.899253 2.357692 -28.223795 0.888761 -5.229479 -5.101849 -17.792139 9.171794 6.679686 -73.868626 16.459692 -53.539681 21.773922 -11.487870 0.809496 -62.000687 -1.025485 4.876163 76.830086 -9.780664 0.728331 -8.151531 -2.055304 2.298258 1.266547 -0.015653 0.077552 -62.787682 10.292264 14.267364 68.662000 14.825388 0.624060 -20.520533 -21.813210 -3.440706 -0.270372 -0.290919 -0.378231
0.0 0.0 0.0 -172.103487 26.035773 178.105147 10.105612 3.627960 0.492296 0.244889 0.543270 -0.043184 3.303031 -0.189230 0.486673 8.886805 0.709802 0.219710 17.441499 0.091216 0.303865 -7.005768 3.338708 -0.639043 3.819549 6.505730 0.913590 -33.252957 16.701908 -16.970773 -75.536619 -19.697999 47.878188 -5.032350 2.338290 -28.205410 0.814475 -5.222168 -5.097743 -17.696972 9.383801 6.676820 -74.153410 16.759630 -53.497361 21.676386 -11.498832 0.740684 -62.055909 -1.000691 4.887642 76.779454 -9.818655 0.746700 -8.197472 -2.084158 2.281634 1.223722 -0.024251 0.077573 -62.835582 10.292771 14.271023 68.621162 14.795211 0.641296 -20.566671 -21.796698 -3.419647 -0.327784 -0.300323 -0.377244
0.0 0.0 0.0 -172.057847 26.074271 178.182847 10.105880 3.618557 0.421019 0.231209 0.515350 -0.001852 3.266977 -0.221370 0.555160 8.845305 0.699471 0.263308 17.410214 0.052203 0.195289 -6.997930 3.351579 -0.695833 3.858227 6.432121 0.852518 -33.114359 16.412434 -17.009988 -75.818891 -19.972110 47.668092 -5.164163 2.264522 -28.045781 0.774991 -5.238163 -5.047082 -17.568648 9.602194 6.727874 -74.479306 17.155012 -53.536242 21.579511 -11.433767 0.566536 -62.065485 -1.007210 4.822451 76.745911 -9.874793 0.695165 -8.207592 -2.125796 2.188618 1.230466 -0.029604 0.030292 -62.864563 10.215600 14.318575 68.618280 14.728383 0.593553 -20.568881 -21.799314 -3.358966 -0.334219 -0.308630 -0.372669
0.0 0.0 0.0 -172.143566 26.060751 178.100461 10.118716 3.614562 0.479927 0.233256 0.531759 0.005154 3.263375 -0.194076 0.575265 8.808075 0.752800 0.283464 17.442577 0.110572 0.282935 -7.037074 3.349317 -0.602306 3.944778 6.413627 1.042742 -33.081161 15.988793 -17.012352 -76.181416 -20.284772 47.130351 -5.328494 2.202022 -28.022325 0.776870 -5.197695 -5.060749 -17.414918 10.002112 6.892425 -74.617761 17.544232 -53.249787 21.484201 -11.417208 0.544064 -62.045671 -1.021209 4.951701 76.720441 -9.888684 0.764227 -8.183975 -2.142938 2.293909 1.203622 -0.062180 0.096299 -62.829872 10.243891 14.378528 68.622064 14.834331 0.676835 -20.647657 -21.824956 -3.376692 -0.387842 -0.342256 -0.357225
0.0 0.0 0.0 -172.102886 26.191119 178.127727 10.118083 3.630111 0.431714 0.265455 0.505677 -0.038700 3.269705 -0.215285 0.545624 8.776322 0.781884 0.219522 17.489082 0.077943 0.181578 -6.947749 3.401771 -0.624040 4.105434 6.302163 0.995465 -32.858937 15.402478 -17.119412 -76.606712 -20.832328 46.494153 -5.479408 2.037679 -27.967442 0.787946 -5.189517 -5.115667 -17.141937 10.478240 6.923301 -74.964687 18.164128 -53.224929 21.400168 -11.352794 0.346236 -62.033772 -1.029104 4.899050 76.717416 -9.883680 0.713934 -8.103481 -2.213286 2.218236 1.311359 -0.055928 0.078813 -62.821525 10.217078 14.353402 68.636994 14.856619 0.628595 -20.601295 -21.831728 -3.375286 -0.311889 -0.338399 -0.372966
0.0 0.0 0.0 -172.202005 26.190029 178.157015 10.039698 3.677926 0.455773 0.191842 0.538112 -0.067873 3.148103 -0.173183 0.519265 8.658107 0.843647 0.193789 17.403144 0.122729 0.163624 -7.010312 3.479490 -0.600932 4.050197 6.270836 1.055379 -32.780561 14.932018 -17.104740 -77.104489 -21.183681 45.923163 -5.708767 1.975620 -27.876924 0.664801 -5.099142 -5.139161 -17.034152 10.964117 6.988457 -75.209672 18.834574 -53.043451 21.191234 -11.174624 0.180656 -62.071960 -0.985060 4.926158 76.683633 -9.879735 0.753590 -8.155076 -2.208498 2.217047 1.254497 -0.008089 0.088888 -62.879944 10.235589 14.358451 68.609681 14.874238 0.687256 -20.673304 -21.747160 -3.412108 -0.384206 -0.292988 -0.378123
0.0 0.0 0.0 -172.137979 26.225930 178.235794 10.067181 3.699526 0.334563 0.222026 0.565687 0.023969 3.168916 -0.143837 0.646035 8.654906 0.900109 0.285684 17.455587 0.136708 0.032311 -6.979003 3.519317 -0.709145 4.166090 6.258071 0.933994 -32.577096 14.689532 -17.265608 -77.472418 -21.416557 45.654340 -5.758357 1.917888 -27.739224 0.705957 -5.056704 -5.004217 -16.949881 11.289967 7.135537 -75.542951 19.244784 -53.012288 21.153832 -11.159370 0.007245 -62.079787 -0.942537 4.888707 76.629026 -9.926430 0.663036 -8.110017 -2.212365 2.103469 1.295026 0.001312 -0.009921 -62.888195 10.215272 14.462015 68.586301 14.873714 0.609569 -20.653452 -21.761975 -3.307941 -0.362926 -0.283525 -0.387752
0.0 0.0 0.0 -172.064923 26.238185 178.192232 10.131086 3.702082 0.396880 0.258319 0.530549 -0.039362 3.193564 -0.175084 0.586823 8.667892 0.885280 0.229184 17.484401 0.124610 0.036531 -6.912651 3.530130 -0.624082 4.265930 6.154594 1.024432 -32.422676 14.221021 -17.258228 -77.853413 -21.867995 45.059895 -5.891239 1.766966 -27.693552 0.705711 -5.067195 -5.087838 -16.738067 11.584327 7.202563 -75.721786 19.639027 -52.874984 21.054657 -10.997459 -0.046658 -61.997566 -0.983360 4.879848 76.688975 -9.865246 0.674959 -8.065363 -2.272068 2.116391 1.355855 0.003508 0.050994 -62.802394 10.148102 14.380478 68.668249 14.892083 0.616171 -20.597871 -21.715343 -3.332321 -0.312862 -0.287540 -0.377724
